<?xml version="1.0" encoding="UTF-8"?><svg xmlns="http://www.w3.org/2000/svg" viewBox="0 0 55 60"><defs><style>.cls-1{fill:#191546;}.cls-2{fill:#27bdbe;}.cls-3{fill:#fff;}</style></defs><g id="Arrière-plan"><rect class="cls-1" x="0" y="0" width="55" height="60" rx="5" ry="5"/></g><g id="Pictos"><path class="cls-3" d="M32.1005,13.9164v11.98h-7.21c-2.2,0-3.9999,1.79-3.9999,4v.44h-5.78v4c-1.06,0-2.08-.42-2.83-1.17s-1.18-1.77-1.18-2.83h-4.07c-1.1,0-2-.9-2-2v-14.42c0-1.1.9-2,2-2h23.07c1.11,0,2,.9,2,2Z"/><circle class="cls-2" cx="13.1068" cy="21.1255" r="1.5"/><circle class="cls-2" cx="18.5698" cy="21.1255" r="1.5"/><circle class="cls-2" cx="24.0327" cy="21.1255" r="1.5"/><path class="cls-2" d="M47.9605,27.8964h-23.07c-1.1,0-2,.89-2,2v14.42c0,1.1.9,2,2,2h15.4885v4c1.0618,0,2.0811-.4222,2.8319-1.173.7496-.7496,1.1712-1.767,1.1725-2.827h3.577c1.11,0,2-.9,2-2v-14.42c0-1.11-.89-2-2-2Z"/><circle class="cls-3" cx="31.4556" cy="37.1022" r="1.5"/><circle class="cls-3" cx="36.9186" cy="37.1022" r="1.5"/><circle class="cls-3" cx="42.3815" cy="37.1022" r="1.5"/></g></svg>