<?xml version="1.0" encoding="UTF-8"?><svg xmlns="http://www.w3.org/2000/svg" viewBox="0 0 55 60"><defs><style>.cls-1{fill:#191546;}.cls-2{fill:#27bdbe;}.cls-3{fill:#fff;}</style></defs><g id="Arrière-plan"><rect class="cls-1" width="55" height="60" rx="5" ry="5"/></g><g id="Pictos"><path class="cls-3" d="M47.1248,11.8089h-4.8199v2.79c0,2.07-1.6801,3.75-3.75,3.75-2.06,0-3.7401-1.68-3.7401-3.75v-2.79h-3.6v2.79c0,2.07-1.68,3.75-3.74,3.75-2.07,0-3.75-1.68-3.75-3.75v-2.79h-4.49v2.79c0,2.07-1.68,3.75-3.74,3.75s-3.7401-1.68-3.7401-3.75v-2.79h-3.88c-1.11,0-2,.9-2,2v27.81c0,1.11.89,2,2,2h9.16c.44-1.12,1.05-2.14,1.81-3.05h-9.26c-.55,0-1-.45-1-1v-18.35c0-.56.45-1,1-1h35.83c.55,0,1,.44,1,1v18.35c0,.55-.45,1-1,1h-9.26c.76.91,1.37,1.93,1.81,3.05h9.16c1.11,0,2-.89,2-2V13.8089c0-1.1-.89-2-2-2Z"/><rect class="cls-3" x="11.5868" y="22.4071" width="8.7631" height="6.674" rx="1" ry="1"/><rect class="cls-3" x="11.5868" y="31.6995" width="8.7631" height="6.674" rx="1" ry="1"/><rect class="cls-3" x="23.1185" y="22.4071" width="8.7631" height="6.674" rx="1" ry="1"/><path class="cls-3" d="M31.8849,32.6989v4.69c-1.35-.5699-2.83-.89-4.38-.89s-3.04.32-4.39.89v-4.69c0-.55.45-1,1-1h6.77c.55,0,1,.45,1,1Z"/><rect class="cls-3" x="34.6501" y="22.4071" width="8.7631" height="6.674" rx="1" ry="1"/><rect class="cls-3" x="34.6501" y="31.6995" width="8.7631" height="6.674" rx="1" ry="1"/><path class="cls-3" d="M17.2349,9.0189v5.58c0,.96-.78,1.75-1.74,1.75s-1.7401-.79-1.7401-1.75v-5.58c0-.96.78-1.74,1.7401-1.74s1.74.78,1.74,1.74Z"/><path class="cls-3" d="M29.2149,9.0189v5.58c0,.96-.78,1.75-1.74,1.75s-1.75-.79-1.75-1.75v-5.58c0-.96.79-1.74,1.75-1.74s1.74.78,1.74,1.74Z"/><path class="cls-3" d="M40.3049,9.0189v5.58c0,.96-.78,1.75-1.75,1.75-.96,0-1.7401-.79-1.7401-1.75v-5.58c0-.96.78-1.74,1.7401-1.74.97,0,1.75.78,1.75,1.74Z"/><path class="cls-2" d="M36.7549,47.7589c0,5.11-4.14,9.25-9.25,9.25-5.12,0-9.2599-4.14-9.2599-9.25,0-1.49.35-2.89.98-4.14.59-1.18,1.43-2.22,2.44-3.05,1.59-1.29,3.63-2.07,5.84-2.07,2.22,0,4.25.78,5.83,2.07,1.02.83,1.85,1.87,2.45,3.05.62,1.25.97,2.65.97,4.14Z"/><path class="cls-3" d="M31.8341,51.3079c-.1724,0-.3472-.0444-.5063-.1382l-4.335-2.5532c-.3052-.1797-.4927-.5078-.4927-.8618v-6.377c0-.5522.4478-1,1-1s1,.4478,1,1v5.8052l3.8423,2.2632c.4761.2803.6348.8936.3545,1.3691-.1865.3169-.52.4927-.8628.4927Z"/></g></svg>