<?xml version="1.0" encoding="UTF-8"?><svg xmlns="http://www.w3.org/2000/svg" viewBox="0 0 55 60"><defs><style>.cls-1{fill:#191546;}.cls-2{fill:#27bdbe;}.cls-3{fill:#fff;}</style></defs><g id="Arrière-plan"><rect class="cls-1" x="0" y="0" width="55" height="60" rx="5" ry="5"/></g><g id="Pictos"><path class="cls-3" d="M38.3554,36.6705c-3.43,0-6.32,2.32-7.19,5.47h-10.59c-2.79,0-5.07-2.27-5.07-5.07s2.28-5.07,5.07-5.07h13.2c5,0,9.07-4.07,9.07-9.07,0-5.01-4.07-9.08-9.07-9.08h-9.93c-.87-3.16-3.77-5.48-7.2-5.48-4.13,0-7.48,3.36-7.48,7.49,0,2.83,1.57,5.28,3.88,6.56.63.34,1.33.6,2.06.75.17.04.34.07.51.09.34.05.68.08,1.03.08s.69-.03,1.03-.08c.18-.02.34-.05.51-.09.73-.15,1.43-.41,2.06-.75,1.75-.97,3.07-2.61,3.61-4.57h9.92c2.8,0,5.07,2.28,5.07,5.08,0,2.79-2.27,5.07-5.07,5.07h-13.2c-5,0-9.07,4.07-9.07,9.07s4.07,9.07,9.07,9.07h10.58c.54,1.97,1.85,3.6,3.6,4.57.63.34,1.33.6,2.0601.75.17.04.33.06.5099.09.34.05.68.07,1.03.07s.69-.02,1.02-.07c.18-.03.35-.05.52-.09.73-.15,1.42-.41,2.05-.75,2.31-1.28,3.88-3.73,3.88-6.56,0-4.13-3.34-7.48-7.47-7.48ZM18.8254,19.7806c-.4.21-.82.37-1.25.46l-.05.01h-.03c-.07.02-.15.03-.25.04-.2.03-.39.05-.6.05-.2,0-.4-.02-.62-.05-.08-.0099-.15-.02-.23-.04h-.04l-.03-.01c-.44-.09-.86-.25-1.23-.44-1.43-.8-2.33-2.31-2.33-3.94,0-2.47,2.01-4.49,4.48-4.49s4.48,2.02,4.48,4.49c0,1.63-.9,3.14-2.3,3.92ZM39.2254,48.5405h-.02c-.08.02-.15.03-.25.04-.2.03-.4.04-.6.04-.21,0-.4-.01-.62-.04-.08-.01-.16-.02-.23-.04l-.04-.0099-.03-.01c-.44-.09-.86-.24-1.23-.44-1.43-.79-2.32-2.3-2.32-3.93,0-2.47,2-4.48,4.47-4.48,2.46,0,4.47,2.01,4.47,4.48,0,1.63-.89,3.14-2.3,3.92-.39.21-.81.36-1.25.45l-.05.02Z"/><path class="cls-2" d="M42.8254,44.1506c0,1.63-.89,3.14-2.3,3.92-.39.21-.81.36-1.25.45l-.05.02h-.02c-.08.02-.15.03-.25.04-.2.03-.4.04-.6.04-.21,0-.4-.01-.62-.04-.08-.01-.16-.02-.23-.04l-.04-.0099-.03-.01c-.44-.09-.86-.24-1.23-.44-1.43-.79-2.32-2.3-2.32-3.93,0-2.47,2-4.48,4.47-4.48,2.46,0,4.47,2.01,4.47,4.48Z"/></g></svg>