<?xml version="1.0" encoding="UTF-8"?><svg xmlns="http://www.w3.org/2000/svg" viewBox="0 0 55 60"><defs><style>.cls-1{fill:#191546;}.cls-2{fill:#27bdbe;}.cls-3{fill:#fff;}</style></defs><g id="Arrière-plan"><rect class="cls-1" x="0" y="0" width="55" height="60" rx="5" ry="5"/></g><g id="Pictos"><path class="cls-2" d="M27.5002,43c-7.168,0-13-5.8315-13-13s5.832-13,13-13,13,5.8315,13,13-5.832,13-13,13Z"/><path class="cls-3" d="M27.5,25c2.7614,0,5,2.2386,5,5s-2.2386,5-5,5-5-2.2386-5-5,2.2386-5,5-5M27.5,9c-11.5795,0-21,9.4205-21,21s9.4205,21,21,21,21-9.4205,21-21-9.4205-21-21-21h0Z"/><path class="cls-1" d="M27.5,25c2.7614,0,5,2.2386,5,5s-2.2386,5-5,5-5-2.2386-5-5,2.2386-5,5-5M27.5,13c-9.3738,0-17,7.6262-17,17s7.6262,17,17,17,17-7.6262,17-17-7.6262-17-17-17h0Z"/><path class="cls-3" d="M27.5,25c2.7614,0,5,2.2386,5,5s-2.2386,5-5,5-5-2.2386-5-5,2.2386-5,5-5M27.5,17c-7.1682,0-13,5.8318-13,13s5.8318,13,13,13,13-5.8318,13-13-5.8318-13-13-13h0Z"/><path class="cls-1" d="M27.5,25c2.7614,0,5,2.2386,5,5s-2.2386,5-5,5-5-2.2386-5-5,2.2386-5,5-5M27.5,21c-4.9626,0-9,4.0374-9,9s4.0374,9,9,9,9-4.0374,9-9-4.0374-9-9-9h0Z"/></g></svg>