<?xml version="1.0" encoding="UTF-8"?><svg xmlns="http://www.w3.org/2000/svg" viewBox="0 0 55 60"><defs><style>.cls-1{fill:#191546;}.cls-2{fill:#27bdbe;}.cls-3{fill:#fff;}</style></defs><g id="Arrière-plan"><rect class="cls-1" width="55" height="60" rx="5" ry="5"/><rect class="cls-1" width="55" height="60" rx="5" ry="5"/></g><g id="Pictos"><circle class="cls-3" cx="26.9003" cy="31.4146" r="17.5"/><path class="cls-2" d="M24.3589,42.4362c-.0938,0-.1875-.0044-.2817-.0132-.9619-.0903-1.8213-.6392-2.3091-1.4731l-5.4883-9.3931c-.8359-1.4307-.3535-3.2681,1.0767-4.104,1.4321-.8354,3.2686-.3525,4.104,1.0767l3.3799,5.7852,16.5425-18.9971c1.0869-1.2495,2.9819-1.3809,4.2324-.292,1.2495,1.0879,1.3804,2.9829.292,4.2324l-19.2866,22.1484c-.5723.6572-1.3989,1.0298-2.2617,1.0298Z"/></g></svg>