<?xml version="1.0" encoding="UTF-8"?><svg xmlns="http://www.w3.org/2000/svg" viewBox="0 0 55 60"><defs><style>.cls-1{fill:#191546;}.cls-2{fill:#27bdbe;}.cls-3{fill:#fff;}</style></defs><g id="Arrière-plan"><rect class="cls-1" y="0" width="55" height="60" rx="5" ry="5"/></g><g id="Pictos"><path class="cls-3" d="M41.0158,26.2293c-.7153-6.0498-5.6294-10.9609-11.6851-11.6777-3.8257-.4502-7.6572.7437-10.5156,3.2832-2.8643,2.5449-4.5073,6.2007-4.5073,10.0288,0,4.1689,1.8892,8.0288,5.1836,10.5889,2.0068,1.5596,3.2046,4.0562,3.2046,6.6787v.6011c0,.5522.4478,1,1,1h8.0283c.5522,0,1-.4478,1-1v-.6001c0-2.6411,1.1777-5.123,3.1504-6.6382,3.7842-2.9072,5.7061-7.4922,5.1411-12.2646Z"/><path class="cls-3" d="M31.7282,49.2381h-8.0376c-.5522,0-1,.4478-1,1s.4478,1,1,1h8.0376c.5522,0,1-.4478,1-1s-.4478-1-1-1Z"/><path class="cls-3" d="M30.1696,53.7434h-4.9204c-.5522,0-1,.4478-1,1s.4478,1,1,1h4.9204c.5522,0,1-.4478,1-1s-.4478-1-1-1Z"/><g id="_Radial_Repeat_"><path class="cls-2" d="M6.7877,42.5149c-.7827,0-1.5435-.4092-1.958-1.1387-.6143-1.0801-.2363-2.4536.8442-3.0679l4.5396-2.5806c1.0796-.6152,2.4531-.2373,3.0679.8442.6143,1.0801.2363,2.4536-.8442,3.0679l-4.5396,2.5806c-.3511.1997-.7329.2944-1.1099.2944Z"/></g><g id="_Radial_Repeat_-2"><path class="cls-2" d="M9.2013,27.386c-.1343,0-.271-.0122-.4077-.0371l-5.1362-.9409c-1.2227-.2241-2.0317-1.3965-1.8081-2.6187.2241-1.2227,1.3921-2.0317,2.6187-1.8081l5.1362.9409c1.2227.2241,2.0317,1.3965,1.8081,2.6187-.1992,1.0854-1.1455,1.8452-2.2109,1.8452Z"/></g><g id="_Radial_Repeat_-3"><path class="cls-2" d="M15.6369,16.407c-.6475,0-1.2896-.2778-1.7349-.8154l-3.3296-4.0225c-.792-.957-.6587-2.3755.2988-3.168.9565-.7935,2.3745-.6582,3.168.2988l3.3296,4.0225c.792.957.6587,2.3755-.2988,3.168-.4194.3472-.9282.5166-1.4331.5166Z"/></g><g id="_Radial_Repeat_-4"><path class="cls-2" d="M27.6242,12.1331h-.0156c-1.2422-.0083-2.2432-1.0225-2.2349-2.2651l.0347-5.2217c.0083-1.2373,1.0142-2.2349,2.2495-2.2349h.0156c1.2422.0083,2.2432,1.0225,2.2349,2.2651l-.0347,5.2217c-.0083,1.2373-1.0142,2.2349-2.2495,2.2349Z"/></g><g id="_Radial_Repeat_-5"><path class="cls-2" d="M39.5534,16.5652c-.5156,0-1.0332-.1758-1.4565-.5361-.9468-.8052-1.0615-2.2251-.2563-3.1714l3.3828-3.9775c.8042-.9478,2.2246-1.062,3.1714-.2563.9468.8052,1.0615,2.2251.2563,3.1714l-3.3828,3.9775c-.4448.5234-1.0781.7925-1.7148.7925Z"/></g><g id="_Radial_Repeat_-6"><path class="cls-2" d="M45.8415,27.6297c-1.0771,0-2.0293-.7764-2.2153-1.8745-.2075-1.2251.6172-2.3867,1.8423-2.5942l5.1484-.8726c1.2246-.2065,2.3862.6167,2.5942,1.8423.2075,1.2251-.6172,2.3867-1.8423,2.5942l-5.1484.8726c-.1274.0215-.2539.0322-.3789.0322Z"/></g><g id="_Radial_Repeat_-7"><path class="cls-2" d="M48.0539,42.7893c-.3867,0-.7783-.0996-1.1357-.3096l-4.5049-2.6406c-1.0723-.6284-1.4316-2.0068-.8032-3.0786.6284-1.0713,2.0088-1.4316,3.0786-.8032l4.5049,2.6406c1.0723.6284,1.4316,2.0068.8032,3.0786-.4185.7144-1.1709,1.1128-1.9429,1.1128Z"/></g><path class="cls-1" d="M23.5494,27.0631c-.7779-.0646-1.3044-.7543-1.2394-1.5323.3153-2.8315,2.3818-4.7248,5.0688-4.9949,3.1959-.3212,6.0677,1.5329,6.4087,4.9267.2758,2.7437-1.3411,4.849-3.4789,5.7493-1.1255.4559-1.7843,1.0079-1.6507,2.3371l.0171.1698c.0768.7637-.5055,1.5077-1.3255,1.5901-.7922.0796-1.4824-.5365-1.5592-1.3002l-.0171-.1698c-.3866-3.8464,1.7065-3.7712,4.2113-5.8513.6844-.5831.9951-1.4713.9183-2.235-.1592-1.5837-1.6786-2.488-3.2341-2.3316-1.2444.1251-2.271.9997-2.5362,2.3405-.1465.8146-.7458,1.3891-1.5832,1.3017ZM27.534,36.8617c1.103-.1109,2.0905.6185,2.2014,1.7215s-.7146,1.9858-1.8176,2.0967c-1.0749.108-2.0877-.59-2.1985-1.693s.7399-2.0171,1.8148-2.1252Z"/></g></svg>