<?xml version="1.0" encoding="UTF-8"?><svg xmlns="http://www.w3.org/2000/svg" viewBox="0 0 55 60"><defs><style>.cls-1{fill:#191546;}.cls-2{fill:#27bdbe;}.cls-3{fill:#fff;}</style></defs><g id="Arrière-plan"><rect class="cls-1" x="0" y="0" width="55" height="60" rx="5" ry="5"/></g><g id="Pictos"><path class="cls-3" d="M24.5154,43.0955l-3.98,9.41c-.33.76-1.07,1.22-1.85,1.22-.26,0-.52-.05-.77-.16-1.02-.43-1.5-1.6-1.07-2.62l3.99-9.41,3.68,1.56Z"/><path class="cls-2" d="M43.2454,14.6155l-.6,1.42c-.87,2.05-3.25,3.01-5.31,2.14l-.27-.12-5.55,19.52.36.15c2.64,1.12,3.87,4.17,2.7599,6.81l-1.03,2.41-9.09-3.85-3.68-1.56-9.08-3.85,1.02-2.42c1.12-2.64,4.17-3.87,6.81-2.75l.36.16,10.17-17.56-.28-.12c-2.06-.87-3.02-3.25-2.15-5.3l.61-1.42,14.95,6.34Z"/></g></svg>