<?xml version="1.0" encoding="UTF-8"?><svg xmlns="http://www.w3.org/2000/svg" viewBox="0 0 55 60"><defs><style>.cls-1{fill:#191546;}.cls-2{fill:#27bdbe;}.cls-3{fill:#fff;}</style></defs><g id="Arrière-plan"><rect class="cls-1" y="0" width="55" height="60" rx="5" ry="5"/></g><g id="Pictos"><path class="cls-3" d="M41.1449,34.6247c0,9.67-7.83,17.5-17.5,17.5-9.66,0-17.5-7.83-17.5-17.5,0-9.66,7.84-17.5,17.5-17.5,2.19,0,4.28.4,6.2,1.13.53,5.33,4.8,9.58,10.13,10.08.76,1.95,1.17,4.07,1.17,6.29Z"/><path class="cls-1" d="M26.3957,42.9668v-12.8101c0-.6084-.2466-1.1909-.6831-1.6147s-1.0195-.6514-1.6348-.6343l-1.8643.0562c-1.2422.0376-2.2188,1.0747-2.1812,2.3169.0327,1.0869.8315,1.9707,1.8633,2.1494v10.5367c-1.0872.1587-1.9248,1.0859-1.9248,2.2172,0,1.2427,1.0073,2.25,2.25,2.25h3.8496c1.2427,0,2.25-1.0073,2.25-2.25,0-1.1313-.8376-2.0585-1.9248-2.2172Z"/><circle class="cls-1" cx="23.6494" cy="23.0538" r="2.5"/><path class="cls-2" d="M50.2949,17.1247c0,5.11-4.15,9.26-9.26,9.26-.72,0-1.41-.08-2.08-.24-3.42-.78-6.12-3.47-6.92-6.89-.16-.68-.25-1.4-.25-2.13,0-5.11,4.14-9.25,9.25-9.25s9.26,4.14,9.26,9.25Z"/><path class="cls-3" d="M45.2951,16.1269h-3.2578v-3.2583c0-.5522-.4478-1-1-1s-1,.4478-1,1v3.2583h-3.2583c-.5522,0-1,.4478-1,1s.4478,1,1,1h3.2583v3.2578c0,.5522.4478,1,1,1s1-.4478,1-1v-3.2578h3.2578c.5522,0,1-.4478,1-1s-.4478-1-1-1Z"/></g></svg>