<?xml version="1.0" encoding="UTF-8"?><svg xmlns="http://www.w3.org/2000/svg" viewBox="0 0 55 60"><defs><style>.cls-1{fill:#191546;}.cls-2{opacity:.51;}.cls-2,.cls-3{fill:#fff;}.cls-4{fill:#27bdbe;}</style></defs><g id="Arrière-plan"><rect class="cls-1" x="0" y="0" width="55" height="60" rx="5" ry="5"/></g><g id="Pictos"><path class="cls-3" d="M44.255,18.66l-10.54,21.2899c-1.68-1.4299-3.85-2.2899-6.22-2.2899s-4.54.87-6.22,2.2999l-10.54-21.2999c1.08.65,2.35,1.0299,3.7,1.0299,2.89,0,5.39-1.71,6.53-4.1699,1.14,2.46,3.64,4.1699,6.53,4.1699s5.39-1.71,6.53-4.1699c1.14,2.46,3.64,4.1699,6.53,4.1699,1.35,0,2.62-.3799,3.7-1.0299Z"/><path class="cls-2" d="M32.795,41.8201l-5.3,10.71-5.3-10.71c1.37-1.3401,3.24-2.16,5.3-2.16s3.93.8199,5.3,2.16Z"/><path class="cls-3" d="M9.235,0v12.48c0,.22.01.4401.05.65.31,2.5699,2.5,4.5599,5.15,4.5599,2.66,0,4.85-1.99,5.16-4.5599.04-.21.05-.4301.05-.65V0h-10.41Z"/><path class="cls-3" d="M22.285,0v12.48c0,.22.0099.4401.05.65.31,2.5699,2.5,4.5599,5.16,4.5599s4.85-1.99,5.16-4.5599c.04-.21.05-.4301.05-.65V0h-10.42Z"/><path class="cls-3" d="M35.345,0v12.48c0,.22.0099.4401.05.65.31,2.5699,2.5,4.5599,5.16,4.5599s4.85-1.99,5.16-4.5599c.04-.21.05-.4301.05-.65V0h-10.42Z"/><path class="cls-4" d="M32.795,41.8201l-5.3,10.71-5.3-10.71c1.37-1.3401,3.24-2.16,5.3-2.16s3.93.8199,5.3,2.16Z"/></g></svg>