<?xml version="1.0" encoding="UTF-8"?><svg xmlns="http://www.w3.org/2000/svg" viewBox="0 0 55 60"><defs><style>.cls-1{fill:#191546;}.cls-2{fill:#27bdbe;}.cls-3{fill:#fff;}</style></defs><g id="Arrière-plan"><rect class="cls-1" y="0" width="55" height="60" rx="5" ry="5"/></g><g id="Pictos"><path class="cls-3" d="M44.9985,10.9964v23.79c-1.02-.51-2.13-.87-3.3-1.05-.56-.09-1.14-.1299-1.72-.1299-2.15,0-4.17.61-5.88,1.66-1.77,1.09-3.22,2.66-4.16,4.53-.48.93-.82,1.9399-1.01,3-.13.67-.2,1.36-.2,2.0699,0,2.26.67,4.37,1.8199,6.13H11.9985c-1.1,0-2-.89-2-2V10.9964c0-1.1.9-2,2-2h31c1.11,0,2,.9,2,2Z"/><path class="cls-2" d="M40.2002,20.2014H14.7998c-.8286,0-1.5-.6714-1.5-1.5s.6714-1.5,1.5-1.5h25.4004c.8286,0,1.5.6714,1.5,1.5s-.6714,1.5-1.5,1.5Z"/><path class="cls-2" d="M40.2002,27.7337H14.7998c-.8286,0-1.5-.6714-1.5-1.5s.6714-1.5,1.5-1.5h25.4004c.8286,0,1.5.6714,1.5,1.5s-.6714,1.5-1.5,1.5Z"/><path class="cls-2" d="M41.6986,33.7364c-.56-.09-1.14-.1299-1.72-.1299-2.15,0-4.17.61-5.88,1.66H14.7985c-.83,0-1.5-.67-1.5-1.5s.67-1.5,1.5-1.5h25.4c.82,0,1.48.65,1.5,1.47Z"/><path class="cls-2" d="M14.7985,39.7964h15.14c-.48.93-.82,1.9399-1.01,3h-14.13c-.83,0-1.5-.67-1.5-1.5s.67-1.5,1.5-1.5Z"/><path class="cls-2" d="M49.2385,44.8664c0,5.11-4.15,9.25-9.2599,9.25-2.76,0-5.23-1.21-6.9301-3.12-1.45-1.63-2.3199-3.77-2.3199-6.13,0-.71.08-1.4.23-2.0699.25-1.08.68-2.1,1.28-3,1.65-2.52,4.5-4.19,7.7401-4.19,1.85,0,3.5699.54,5.02,1.48,2.55,1.65,4.24,4.52,4.24,7.78Z"/><path class="cls-3" d="M37.2631,42.2821c-.5299-.0742-.8635-.5666-.789-1.0965.325-1.9256,1.8123-3.1415,3.6616-3.2226,2.1995-.0965,4.0932,1.2832,4.1957,3.6189.0828,1.8883-1.1049,3.2666-2.6027,3.8003-.7878.2685-1.26.6209-1.2199,1.5357l.0051.1169c.0231.5256-.4041,1.0123-.9685,1.037-.5452.0239-.9938-.4243-1.0168-.95l-.0051-.1169c-.1161-2.6472,1.3134-2.5149,3.1078-3.8418.4909-.3726.7378-.9685.7147-1.4941-.0478-1.0899-1.0527-1.7674-2.1233-1.7204-.8564.0376-1.5927.5965-1.8259,1.5038-.1317.5518-.564.9218-1.1337.8297ZM39.6118,49.1415c.7591-.0333,1.4068.5039,1.4401,1.2631s-.5657,1.3314-1.3248,1.3647c-.7398.0325-1.4059-.4843-1.4392-1.2435s.5842-1.3519,1.324-1.3843Z"/></g></svg>