<?xml version="1.0" encoding="UTF-8"?><svg xmlns="http://www.w3.org/2000/svg" viewBox="0 0 55 60"><defs><style>.cls-1{fill:#191546;}.cls-2{fill:#27bdbe;}.cls-3{fill:#fff;}</style></defs><g id="Arrière-plan"><rect class="cls-1" x="0" y="0" width="55" height="60" rx="5" ry="5"/></g><g id="Pictos"><polygon class="cls-3" points="21.2895 13.2176 13.1562 14.3607 21.1248 20.3655 29.258 19.2224 21.2895 13.2176"/><polygon class="cls-3" points="31.9857 11.7144 23.8526 12.8574 31.8212 18.8622 39.954 17.7192 31.9857 11.7144"/><path class="cls-3" d="M42.517,17.359l4.3571-.6123-.7272-5.1741c-.1407-1.0011-1.0663-1.6985-2.0673-1.5578l-9.5308,1.3395,7.9683,6.0048Z"/><path class="cls-3" d="M18.5617,20.7257l-7.9686-6.0048-2.0908.2938c-1.0011.1407-1.6985,1.0663-1.5578,2.0673l.7272,5.1741,10.8901-1.5305Z"/><path class="cls-3" d="M47.2605,24.0906v18.4c0,1.01-.8199,1.83-1.83,1.83h-6.68v-.21c0-6.21-5.05-11.26-11.25-11.26-6.21,0-11.25,5.05-11.25,11.26v.21h-6.75c-1.01,0-1.83-.82-1.83-1.83v-18.4h39.59Z"/><path class="cls-2" d="M36.7506,44.1105v.21c-.11,5.01-4.21,9.04-9.25,9.04s-9.14-4.03-9.25-9.04v-.21c0-5.11,4.14-9.26,9.25-9.26s9.25,4.15,9.25,9.26Z"/><path class="cls-3" d="M33.4671,43.5304l-8.6828-4.0236c-.4157-.1926-.891.1109-.891.5691v8.0642c0,.4582.4753.7618.891.5691l8.6828-4.0236c.492-.228.492-.9273,0-1.1553Z"/></g></svg>