<?xml version="1.0" encoding="UTF-8"?><svg xmlns="http://www.w3.org/2000/svg" viewBox="0 0 55 60"><defs><style>.cls-1{fill:#191546;}.cls-2{fill:#27bdbe;}.cls-3{fill:#fff;}</style></defs><g id="Arrière-plan"><rect class="cls-1" y="0" width="55" height="60" rx="5" ry="5"/></g><g id="Pictos"><path class="cls-3" d="M38.0944,48.5001h-21.1885c-4.3594,0-7.9058-3.5464-7.9058-7.9058v-21.1885c0-4.3594,3.5464-7.9058,7.9058-7.9058h7.8101c1.3809,0,2.5,1.1191,2.5,2.5s-1.1191,2.5-2.5,2.5h-7.8101c-1.6021,0-2.9058,1.3037-2.9058,2.9058v21.1885c0,1.6021,1.3037,2.9058,2.9058,2.9058h21.1885c1.6021,0,2.9058-1.3037,2.9058-2.9058v-7.9131c0-1.3809,1.1191-2.5,2.5-2.5s2.5,1.1191,2.5,2.5v7.9131c0,4.3594-3.5464,7.9058-7.9058,7.9058Z"/><path class="cls-2" d="M45.9666,13.7483c-.0056-.0389-.004-.0791-.0113-.1177-.0606-.3199-.1836-.6301-.3698-.9111-.0919-.1389-.1981-.2693-.3177-.3888-.4216-.422-.9766-.6707-1.5703-.7135-.0726-.0057-.1446-.0175-.2174-.017-.0062.0001-.0121-.0016-.0184-.0015l-9.2905.144c-1.3809.021-2.4824,1.1577-2.4609,2.5381.0215,1.3809,1.1567,2.4922,2.5381,2.4609l3.1215-.0483-10.2108,10.2104c-.9766.9761-.9766,2.5591,0,3.5352.4878.4883,1.1279.7324,1.7676.7324s1.2798-.2441,1.7676-.7324l10.2104-10.2101-.0483,3.1208c-.0215,1.3809,1.0801,2.5171,2.4604,2.5386.0137.0005.0264.0005.04.0005,1.3623,0,2.4775-1.0938,2.4985-2.4609l.1445-9.2905c.0001-.0061-.0016-.0119-.0015-.018.001-.1243-.0142-.2477-.0316-.371Z"/></g></svg>