<?xml version="1.0" encoding="UTF-8"?><svg xmlns="http://www.w3.org/2000/svg" viewBox="0 0 55 60"><defs><style>.cls-1{fill:#191546;}.cls-2{fill:#27bdbe;}.cls-3{fill:#fff;}</style></defs><g id="Arrière-plan"><rect class="cls-1" width="55" height="60" rx="5" ry="5"/></g><g id="Pictos"><circle class="cls-3" cx="26.9003" cy="30" r="17.5"/><path class="cls-2" d="M47.0996,31.1864l-7.7113-4.4521,7.7113-4.4521c1.4351-.8286,1.9263-2.6631,1.0981-4.0981-.8281-1.4341-2.6626-1.9248-4.0981-1.0981l-7.7114,4.4522v-8.9039c0-1.6567-1.3433-3-3-3s-3,1.3433-3,3v8.9039l-7.7114-4.4522c-1.4351-.8281-3.2695-.3359-4.0981,1.0981-.8281,1.4351-.3369,3.2695,1.0981,4.0981l7.7113,4.4521-7.7113,4.4521c-1.4351.8286-1.9263,2.6631-1.0981,4.0981.5557.9624,1.564,1.5005,2.6011,1.5005.5088,0,1.0249-.1299,1.4971-.4023l7.7114-4.4522v8.9044c0,1.6567,1.3433,3,3,3s3-1.3433,3-3v-8.9044l7.7114,4.4522c.4727.2729.9883.4023,1.4971.4023,1.0371,0,2.0454-.5381,2.6011-1.5005.8281-1.4351.3369-3.2695-1.0981-4.0981Z"/></g></svg>