<?xml version="1.0" encoding="UTF-8"?><svg xmlns="http://www.w3.org/2000/svg" viewBox="0 0 55 60"><defs><style>.cls-1{fill:#191546;}.cls-2{fill:#27bdbe;}.cls-3{fill:#fff;}</style></defs><g id="Arrière-plan"><rect class="cls-1" x="0" y="0" width="55" height="60" rx="5" ry="5"/></g><g id="Pictos"><rect class="cls-3" x="10" y="9" width="35" height="42" rx="2" ry="2"/><path class="cls-2" d="M40.5696,20.2015H15.1692c-.8281,0-1.5-.6714-1.5-1.5s.6719-1.5,1.5-1.5h25.4004c.8281,0,1.5.6714,1.5,1.5s-.6719,1.5-1.5,1.5Z"/><path class="cls-2" d="M40.5696,27.7337H15.1692c-.8281,0-1.5-.6714-1.5-1.5s.6719-1.5,1.5-1.5h25.4004c.8281,0,1.5.6714,1.5,1.5s-.6719,1.5-1.5,1.5Z"/><path class="cls-2" d="M15.1692,35.2664c-.8281,0-1.5-.6714-1.5-1.5s.6719-1.5,1.5-1.5l25.4004-.0005c.8281,0,1.5.6714,1.5,1.5s-.6719,1.5-1.5,1.5l-25.4004.0005Z"/><path class="cls-2" d="M34.1467,42.7987H15.1692c-.8281,0-1.5-.6714-1.5-1.5s.6719-1.5,1.5-1.5h18.9775c.8281,0,1.5.6714,1.5,1.5s-.6719,1.5-1.5,1.5Z"/></g></svg>