<?xml version="1.0" encoding="UTF-8"?><svg xmlns="http://www.w3.org/2000/svg" viewBox="0 0 55 60"><defs><style>.cls-1{fill:#191546;}.cls-2{fill:#27bdbe;}.cls-3{fill:#fff;}</style></defs><g id="Arrière-plan"><path class="cls-1" d="M54.9954,4.9964v50c0,2.77-2.23,5-5,5H4.9954C2.2354,59.9964-.0046,57.7664-.0046,54.9964V4.9964C-.0046,2.2364,2.2354-.0036,4.9954-.0036h45c2.77,0,5,2.24,5,5Z"/></g><g id="Pictos"><path class="cls-3" d="M43.7004,31.9622c-1.1045,0-2-.8955-2-2,0-8.4497-6.3643-15.3237-14.1865-15.3237s-14.1865,6.874-14.1865,15.3237c0,1.1045-.8955,2-2,2s-2-.8955-2-2c0-10.6553,8.1582-19.3237,18.1865-19.3237s18.1865,8.6685,18.1865,19.3237c0,1.1045-.8955,2-2,2Z"/><path class="cls-2" d="M11.3952,34.8768h2.112c.1607,0,.2912.1305.2912.2912v11.9021c0,.1607-.1305.2912-.2912.2912h-2.112c-1.9303,0-3.4974-1.5671-3.4974-3.4974v-5.4898c0-1.9303,1.5671-3.4974,3.4974-3.4974Z"/><path class="cls-3" d="M18.2092,49.3616c-1.1045,0-2-.8955-2-2v-12.4849c0-1.1045.8955-2,2-2s2,.8955,2,2v12.4849c0,1.1045-.8955,2-2,2Z"/><path class="cls-2" d="M44.699,34.8768h2.112c.1607,0,.2912.1305.2912.2912v11.9021c0,.1607-.1305.2912-.2912.2912h-2.112c-1.9303,0-3.4974-1.5671-3.4974-3.4974v-5.4898c0-1.9303,1.5671-3.4974,3.4974-3.4974Z" transform="translate(88.3038 82.2382) rotate(180)"/><path class="cls-3" d="M36.7912,49.3616c-1.1045,0-2-.8955-2-2v-12.4849c0-1.1045.8955-2,2-2s2,.8955,2,2v12.4849c0,1.1045-.8955,2-2,2Z"/></g></svg>