<?xml version="1.0" encoding="UTF-8"?><svg xmlns="http://www.w3.org/2000/svg" viewBox="0 0 55 60"><defs><style>.cls-1{fill:#191546;}.cls-2{fill:#27bdbe;}.cls-3{fill:#fff;}</style></defs><g id="Arrière-plan"><rect class="cls-1" width="55" height="60" rx="5" ry="5"/></g><g id="Pictos"><path class="cls-2" d="M45.9907,16.7856h-23.395c-1.3809,0-2.5-1.1191-2.5-2.5s1.1191-2.5,2.5-2.5h23.395c1.3809,0,2.5,1.1191,2.5,2.5s-1.1191,2.5-2.5,2.5Z"/><circle class="cls-3" cx="11.8031" cy="14.2858" r="4"/><path class="cls-2" d="M45.9907,32.7627h-23.395c-1.3809,0-2.5-1.1191-2.5-2.5s1.1191-2.5,2.5-2.5h23.395c1.3809,0,2.5,1.1191,2.5,2.5s-1.1191,2.5-2.5,2.5Z"/><circle class="cls-3" cx="11.8031" cy="30.2626" r="4"/><path class="cls-2" d="M45.9907,48.7392h-23.395c-1.3809,0-2.5-1.1191-2.5-2.5s1.1191-2.5,2.5-2.5h23.395c1.3809,0,2.5,1.1191,2.5,2.5s-1.1191,2.5-2.5,2.5Z"/><circle class="cls-3" cx="11.8031" cy="46.2393" r="4"/></g></svg>